<svg width="283" height="100" viewBox="0 0 283 100" fill="none" xmlns="http://www.w3.org/2000/svg">
<g clip-path="url(#clip0_26_9024)">
<path d="M86.6847 0.00292969H19.4069L14.5522 13.3319H81.8301L86.6847 0.00292969Z" fill="white"/>
<path d="M79.4011 20.0015H12.1233L7.26855 33.3304H74.5465L79.4011 20.0015Z" fill="white"/>
<path d="M72.1192 39.9995H4.85421L-0.000488281 53.3285H67.2773L72.1192 39.9995Z" fill="white"/>
<path d="M242.099 86.5742H254.144C258.714 86.5742 261.478 85.4706 263.426 82.9791C265.081 80.8003 265.913 78.1063 265.775 75.3736C265.775 71.2203 264.386 68.313 261.621 66.2888C259.96 64.9906 257.727 64.3548 254.002 64.3548H242.099V86.5742ZM226.184 100.007V20.0069H278.236L273.667 33.4397H242.099V51.1425H254.975C265.36 51.1425 270.76 53.6344 274.446 56.8271C277.353 59.319 282.338 64.8482 282.338 75.7888C282.338 86.73 277.146 92.5312 272.927 95.5809C267.943 99.0336 262.673 100.007 252.015 100.007H226.184ZM180.091 100.007V33.4397H156.972V20.0069H221.2L216.631 33.4397H196.148V100.007H180.091ZM115.993 51.9212H124.989C126.846 52.0507 128.713 51.9108 130.531 51.5059C134.27 50.4027 136.619 47.0802 136.619 42.5117C136.619 37.1127 134.127 34.7246 130.531 33.6604C128.538 33.191 126.489 33.0031 124.443 33.1023H115.993V51.9212ZM116.136 65.7694V86.8597H127.208C130.531 86.8597 133.582 86.5742 135.788 84.5106C136.883 83.4621 137.735 82.187 138.285 80.7742C138.834 79.3621 139.068 77.8463 138.968 76.3336C139.044 73.8657 138.32 71.4397 136.905 69.416C134.542 66.5094 131.634 65.8215 126.65 65.8215L116.136 65.7694ZM141.747 57.3722V57.6577C144.443 58.6941 146.965 60.1386 149.223 61.9409C153.922 65.8342 155.999 70.9348 155.999 77.5797C155.999 88.5209 150.184 96.4118 140.643 98.9033C137.736 99.7342 134.685 100.007 128.961 100.007H100.079V20.0069H125.689C129.735 19.8599 133.783 20.2306 137.736 21.1101C147.004 23.602 153.092 29.9745 153.092 40.0718C153.161 42.4684 152.742 44.854 151.864 47.0847C150.984 49.3154 149.663 51.3448 147.977 53.0503C146.198 54.8685 144.081 56.3232 141.747 57.3333" fill="white"/>
</g>
<defs>
<clipPath id="clip0_26_9024">
<rect width="283" height="100" fill="white"/>
</clipPath>
</defs>
</svg>
